# xmcd
#
# Track frame offsets:
#	150
#	12213
#	23912
#	40699
#	55821
#	66333
#	82007
#	94902
#	107665
#	124596
#	141726
#	154371
#
# Disc length: 2248 seconds
# Revision: 1
# Processed by: cddbd v1.5.2PL0 Copyright (c) Steve Scherf et al.
# Submitted via: dBpowerAMP V12.0
#
DISCID=a408c60c
DTITLE=Lare Williams - Grandpa John
DYEAR=2002
DGENRE=Bluegrass
TTITLE0=Grandpa John
TTITLE1=Angel Band
TTITLE2=Bridge to Nowhere
TTITLE3=The Hand Song
TTITLE4=Love Please Come Home
TTITLE5=Dobro Jack
TTITLE6=It Wasn't You
TTITLE7=Roses in the Sonw
TTITLE8=I Miss You Caroline
TTITLE9=Cactus Pass
TTITLE10=Little Mountain Church House
TTITLE11=She Knows He Loved Her Once
EXTD=
EXTT0=
EXTT1=
EXTT2=
EXTT3=
EXTT4=
EXTT5=
EXTT6=
EXTT7=
EXTT8=
EXTT9=
EXTT10=
EXTT11=
PLAYORDER=
